<svg width="62" height="32" viewBox="0 0 62 32" fill="none" xmlns="http://www.w3.org/2000/svg">
<rect x="0.5" y="0.5" width="61" height="31" rx="2.5" fill="white"/>
<path d="M16.5978 9.41734C16.0784 10.0507 15.2473 10.5502 14.4162 10.4788C14.3123 9.6225 14.7192 8.71265 15.1954 8.15069C15.7148 7.49952 16.6237 7.03568 17.3596 7C17.4461 7.89201 17.1085 8.76618 16.5978 9.41734ZM17.3509 10.6483C16.1476 10.577 15.1174 11.353 14.5461 11.353C13.9661 11.353 13.0917 10.684 12.1395 10.7018C10.9015 10.7197 9.75017 11.4422 9.11822 12.5929C7.81969 14.8943 8.7806 18.3017 10.0358 20.175C10.6505 21.1026 11.3863 22.1195 12.3559 22.0838C13.2735 22.0482 13.6371 21.4684 14.7452 21.4684C15.8619 21.4684 16.1822 22.0838 17.1518 22.066C18.156 22.0482 18.788 21.1383 19.4026 20.2106C20.1038 19.1581 20.3895 18.1323 20.4068 18.0787C20.3895 18.0609 18.4677 17.3027 18.4503 15.0191C18.433 13.1103 19.9653 12.2004 20.0346 12.1469C19.1689 10.8267 17.8184 10.684 17.3509 10.6483V10.6483ZM24.3024 8.06149V21.9679H26.3974V17.2135H29.2974C31.9464 17.2135 33.8077 15.3403 33.8077 12.6286C33.8077 9.91686 31.9811 8.06149 29.3667 8.06149H24.3024ZM26.3974 9.88118H28.8126C30.6306 9.88118 31.6694 10.8802 31.6694 12.6375C31.6694 14.3947 30.6306 15.4027 28.804 15.4027H26.3974V9.88118ZM37.634 22.0749C38.9498 22.0749 40.1705 21.3881 40.7245 20.2998H40.7678V21.9679H42.7069V15.0459C42.7069 13.0389 41.1487 11.7455 38.7507 11.7455C36.5259 11.7455 34.8811 13.0567 34.8205 14.8586H36.7077C36.8635 14.0023 37.634 13.4403 38.6901 13.4403C39.9714 13.4403 40.6899 14.0558 40.6899 15.1886V15.9558L38.0755 16.1163C35.6429 16.268 34.3271 17.2938 34.3271 19.0778C34.3271 20.8796 35.6862 22.0749 37.634 22.0749V22.0749ZM38.1967 20.4247C37.08 20.4247 36.3701 19.8717 36.3701 19.0243C36.3701 18.1501 37.054 17.6417 38.3612 17.5614L40.6899 17.4097V18.1947C40.6899 19.497 39.6164 20.4247 38.1967 20.4247V20.4247ZM45.2953 25.75C47.3384 25.75 48.2993 24.9472 49.139 22.512L52.8182 11.8793H50.6886L48.2214 20.0947H48.1781L45.7109 11.8793H43.5207L47.07 22.0036L46.8796 22.6191C46.5593 23.6627 46.0398 24.0641 45.1136 24.0641C44.9491 24.0641 44.6288 24.0463 44.4989 24.0284V25.6965C44.6201 25.7322 45.1395 25.75 45.2953 25.75V25.75Z" fill="black"/>
<rect x="0.5" y="0.5" width="61" height="31" rx="2.5" stroke="#EEEEEE"/>
</svg>
